<?xml version="1.0" encoding="iso-8859-1"?>
<!-- Generator: Adobe Illustrator 19.0.0, SVG Export Plug-In . SVG Version: 6.00 Build 0)  -->
<svg version="1.1" id="Capa_1" xmlns="http://www.w3.org/2000/svg" xmlns:xlink="http://www.w3.org/1999/xlink" x="0px" y="0px"
	 viewBox="0 0 512.001 512.001" style="enable-background:new 0 0 512.001 512.001;" xml:space="preserve">
<path style="fill:#FF4C4C;" d="M325.445,55.748c-41.813,6.441-76.009,31.818-95.216,66.062
	c-28.622-26.875-68.871-40.784-110.684-34.343C47.387,98.582-2.098,166.089,9.018,238.247
	c25.288,164.155,272.973,219.578,272.973,219.578s219.522-127.396,194.234-291.551C465.11,94.116,397.603,44.632,325.445,55.748z"/>
<path style="fill:#F33939;" d="M476.225,166.274C465.11,94.116,397.603,44.632,325.445,55.748c-2.339,0.36-4.651,0.789-6.941,1.266
	c51.778,11.038,93.233,53.598,104.009,109.26c23.404,120.892-67.44,227.712-128.419,284.005
	C339.743,420.656,497.899,306.969,476.225,166.274z"/>
<path style="fill:#FFCCD7;" d="M430.832,195.374c-30.539-7.975-61.473-0.727-84.768,17.032
	c-11.638-26.881-35.079-48.328-65.619-56.303c-52.703-13.762-106.585,17.805-120.347,70.509
	c-31.309,119.897,121.878,231.216,121.878,231.216s188.056-22.21,219.364-142.107C515.104,263.018,483.536,209.137,430.832,195.374z
	"/>
<path style="fill:#FFB3CB;" d="M430.832,195.374c-18.568-4.849-37.279-4.061-54.334,1.286
	c49.995,15.57,79.397,67.869,66.029,119.061c-19.929,76.319-103.102,120.09-160.931,141.827c0.247,0.183,0.379,0.279,0.379,0.279
	s188.056-22.21,219.364-142.107C515.104,263.018,483.536,209.137,430.832,195.374z"/>
<path d="M232.192,435.079C61.644,374.666,23.773,285.117,16.378,237.114C5.905,169.13,52.694,105.3,120.678,94.827
	c38.178-5.882,76.251,5.932,104.453,32.412c1.67,1.567,3.967,2.28,6.231,1.931c2.263-0.349,4.241-1.72,5.361-3.717
	c18.924-33.739,51.675-56.463,89.855-62.345c32.932-5.073,65.87,2.981,92.745,22.681c26.874,19.7,44.469,48.686,49.542,81.619
	c0.686,4.452,1.196,8.983,1.516,13.468c0.293,4.102,3.861,7.197,7.959,6.896c4.102-0.293,7.19-3.857,6.896-7.959
	c-0.35-4.887-0.905-9.824-1.652-14.673c-5.679-36.864-25.374-69.311-55.457-91.363s-66.949-31.071-103.818-25.389
	c-39.712,6.118-74.176,28.512-95.85,61.947c-30.732-25.363-70.334-36.346-110.05-30.228c-36.864,5.679-69.311,25.374-91.363,55.457
	C4.996,165.647-4.021,202.517,1.658,239.382C20.065,358.871,150.88,422.077,227.219,449.118c0.822,0.291,1.661,0.429,2.487,0.429
	c3.065,0,5.937-1.908,7.019-4.962C238.098,440.708,236.069,436.452,232.192,435.079z"/>
<path d="M432.714,188.169c-28.85-7.534-58.892-2.727-83.751,13.136c-13.931-25.993-37.788-44.873-66.636-52.407
	c-27.416-7.16-55.976-3.213-80.422,11.109c-24.447,14.323-41.853,37.309-49.011,64.723c-7.531,28.84-5.497,59.506,6.045,91.142
	c9.09,24.916,24.08,50.476,44.553,75.971c34.609,43.098,72.512,70.848,74.108,72.008c1.278,0.929,2.812,1.422,4.378,1.422
	c0.29,0,0.582-0.017,0.874-0.051c1.96-0.232,48.592-5.907,99.853-26.582c30.324-12.23,55.897-27.198,76.008-44.489
	c25.536-21.955,42.303-47.71,49.835-76.55C523.324,261.011,489.306,202.947,432.714,188.169z M494.136,313.84
	c-6.739,25.808-21.881,48.992-45.006,68.911c-18.828,16.217-42.95,30.334-71.697,41.958c-42.354,17.127-82.49,23.747-93.422,25.328
	c-8.764-6.725-40.538-32.123-69.111-67.771c-19.393-24.195-33.534-48.303-42.029-71.655c-10.434-28.681-12.307-56.31-5.568-82.117
	c6.153-23.566,21.115-43.324,42.129-55.636c14.168-8.3,29.942-12.546,45.939-12.546c7.73,0,15.514,0.992,23.191,2.997
	c27.32,7.133,49.432,26.107,60.667,52.056c0.91,2.102,2.737,3.668,4.952,4.246c2.218,0.578,4.575,0.106,6.396-1.283
	c22.487-17.143,51.055-22.881,78.372-15.749C477.597,215.282,506.839,265.194,494.136,313.84z"/>
<g>
</g>
<g>
</g>
<g>
</g>
<g>
</g>
<g>
</g>
<g>
</g>
<g>
</g>
<g>
</g>
<g>
</g>
<g>
</g>
<g>
</g>
<g>
</g>
<g>
</g>
<g>
</g>
<g>
</g>
</svg>
