<?xml version="1.0" encoding="iso-8859-1"?>
<!-- Generator: Adobe Illustrator 19.0.0, SVG Export Plug-In . SVG Version: 6.00 Build 0)  -->
<svg version="1.1" id="Capa_1" xmlns="http://www.w3.org/2000/svg" xmlns:xlink="http://www.w3.org/1999/xlink" x="0px" y="0px"
	 viewBox="0 0 512 512" style="enable-background:new 0 0 512 512;" xml:space="preserve">
<path style="fill:#F2EBDA;" d="M492.441,464.367H7.511V116.653h484.93c6.653,0,12.047,5.394,12.047,12.047v323.62
	C504.489,458.974,499.095,464.367,492.441,464.367z"/>
<path style="fill:#E5D8C6;" d="M492.441,116.653h-52.68c6.654,0,12.047,5.394,12.047,12.047v283.779
	c0,13.538-10.975,24.513-24.513,24.513H7.511v27.375h484.93c6.653,0,12.047-5.394,12.047-12.047v-27.375V128.7
	C504.489,122.047,499.095,116.653,492.441,116.653z"/>
<path style="fill:#F6D563;" d="M440.732,394.886L7.511,464.367V116.653l429.405-68.869c7.321-1.174,13.955,4.481,13.955,11.895
	v323.312C450.871,388.908,446.574,393.949,440.732,394.886z"/>
<path style="fill:#FFC850;" d="M436.916,47.784l-38.725,6.211V359.73c0,5.917-4.297,10.958-10.139,11.895L7.511,432.657v31.71
	l433.22-69.481c5.842-0.937,10.139-5.978,10.139-11.895V59.679C450.871,52.265,444.237,46.61,436.916,47.784z"/>
<path style="fill:#FF9FAF;" d="M195.841,144.007c15.37-1.466,29.041,4.41,37.823,14.745c8.777-12.013,22.427-20.492,37.75-21.954
	c26.416-2.52,47.851,16.776,47.907,43.126c0.13,60.076-85.657,102.107-85.657,102.107s-86.162-25.157-86.032-85.521
	C147.69,170.034,169.288,146.54,195.841,144.007z"/>
<path style="fill:#EF92A6;" d="M319.321,179.925c-0.057-26.351-21.491-45.646-47.907-43.126
	c-15.323,1.462-28.973,9.941-37.75,21.954l0.001,123.279C233.665,282.032,319.451,240.001,319.321,179.925z"/>
<path d="M319.017,304.068l-116.793,18.731c-4.096,0.657-6.884,4.51-6.227,8.606c0.593,3.694,3.783,6.323,7.408,6.323
	c0.395,0,0.795-0.031,1.198-0.096l116.793-18.731c4.096-0.657,6.884-4.51,6.227-8.606
	C326.966,306.199,323.117,303.408,319.017,304.068z"/>
<path d="M154.895,345.508c0.395,0,0.795-0.031,1.198-0.096l13.992-2.244c4.096-0.657,6.884-4.51,6.227-8.606
	s-4.508-6.886-8.606-6.227l-13.992,2.244c-4.096,0.657-6.884,4.51-6.227,8.606C148.08,342.879,151.271,345.508,154.895,345.508z"/>
<path d="M323.083,346.038l-11.564,1.855c-4.096,0.657-6.884,4.51-6.227,8.606c0.593,3.693,3.783,6.323,7.408,6.323
	c0.395,0,0.795-0.031,1.198-0.096l11.564-1.855c4.096-0.657,6.884-4.51,6.227-8.606
	C331.031,348.169,327.182,345.382,323.083,346.038z"/>
<path d="M277,353.429l-119.22,19.12c-4.096,0.657-6.884,4.51-6.227,8.606c0.593,3.694,3.783,6.323,7.408,6.323
	c0.395,0,0.795-0.031,1.198-0.096l119.22-19.121c4.096-0.657,6.884-4.51,6.227-8.606C284.949,355.56,281.099,352.77,277,353.429z"/>
<path d="M186.539,268.226c22.183,14.258,44.099,20.747,45.02,21.016c0.691,0.201,1.399,0.301,2.106,0.301
	c1.136,0,2.268-0.258,3.305-0.766c0.91-0.445,22.523-11.124,44.406-29.521c29.797-25.051,45.515-52.489,45.457-79.348
	c-0.032-14.821-5.861-28.256-16.414-37.829c-10.644-9.656-24.761-14.183-39.717-12.759c-14.182,1.353-27.486,7.943-37.56,18.402
	c-10.318-8.521-23.757-12.551-38.012-11.193c-30.266,2.888-54.942,29.787-55.007,59.965
	C140.063,223.866,156.114,248.67,186.539,268.226z M196.555,151.485c12.394-1.181,23.83,3.24,31.386,12.131
	c1.49,1.753,3.702,2.728,5.999,2.643c2.298-0.085,4.432-1.218,5.789-3.075c7.895-10.805,19.704-17.697,32.398-18.908
	c10.707-1.024,20.723,2.15,28.198,8.93c7.383,6.699,11.463,16.193,11.485,26.735c0.106,49.005-64.839,86.48-78.824,93.977
	c-14.232-4.839-77.945-29.209-77.841-77.391C155.193,173.864,173.769,153.658,196.555,151.485z"/>
<path d="M492.441,109.142h-34.058V59.679c0-5.737-2.505-11.163-6.871-14.885c-4.367-3.722-10.12-5.336-15.786-4.427L6.322,109.237
	C2.679,109.821,0,112.964,0,116.654v347.714c0,0.067,0.009,0.133,0.011,0.199c0.004,0.132,0.002,0.264,0.013,0.397
	c0.003,0.042,0.012,0.082,0.016,0.124c0.01,0.099,0.024,0.196,0.038,0.295c0.022,0.163,0.047,0.324,0.079,0.483
	c0.019,0.091,0.04,0.181,0.062,0.272c0.04,0.167,0.086,0.331,0.137,0.494c0.025,0.08,0.05,0.159,0.078,0.238
	c0.061,0.174,0.13,0.344,0.203,0.511c0.028,0.065,0.055,0.131,0.085,0.195c0.091,0.192,0.19,0.378,0.296,0.56
	c0.022,0.038,0.041,0.077,0.063,0.114c0.134,0.222,0.278,0.437,0.433,0.642c0.017,0.023,0.037,0.044,0.055,0.067
	c0.136,0.176,0.279,0.346,0.43,0.509c0.056,0.061,0.117,0.118,0.175,0.177c0.121,0.122,0.244,0.241,0.373,0.354
	c0.032,0.028,0.059,0.06,0.091,0.087c0.05,0.042,0.103,0.079,0.154,0.12c0.087,0.071,0.175,0.14,0.266,0.207s0.183,0.13,0.276,0.193
	c0.096,0.064,0.191,0.127,0.29,0.187c0.092,0.056,0.186,0.108,0.28,0.159c0.105,0.058,0.211,0.115,0.319,0.167
	c0.092,0.045,0.185,0.085,0.278,0.126c0.114,0.05,0.228,0.1,0.345,0.144c0.093,0.035,0.187,0.066,0.281,0.097
	c0.12,0.04,0.239,0.081,0.362,0.115c0.1,0.028,0.202,0.05,0.304,0.074c0.117,0.028,0.234,0.057,0.353,0.079
	c0.125,0.023,0.252,0.038,0.378,0.055c0.099,0.013,0.196,0.03,0.296,0.039c0.229,0.021,0.46,0.033,0.691,0.033h484.93
	c10.785,0,19.559-8.774,19.559-19.558v-323.62C512,117.916,503.226,109.142,492.441,109.142z M15.023,123.056L438.105,55.2
	c1.803-0.288,3.066,0.52,3.662,1.027c0.595,0.507,1.593,1.63,1.593,3.452l0,0v323.312c0,2.24-1.606,4.123-3.817,4.478l0,0
	l-424.52,68.086L15.023,123.056L15.023,123.056z M496.977,452.32c0,2.501-2.035,4.536-4.536,4.536H101.777l340.144-54.553
	c7.75-1.243,13.773-6.838,15.76-14.074c0.458-1.67,0.702-3.427,0.702-5.238V124.164h34.058c2.501,0,4.536,2.035,4.536,4.536
	L496.977,452.32L496.977,452.32z"/>
<g>
</g>
<g>
</g>
<g>
</g>
<g>
</g>
<g>
</g>
<g>
</g>
<g>
</g>
<g>
</g>
<g>
</g>
<g>
</g>
<g>
</g>
<g>
</g>
<g>
</g>
<g>
</g>
<g>
</g>
</svg>
